<svg width="400" height="350" viewBox="0 0 400 350" fill="none" xmlns="http://www.w3.org/2000/svg">
<path fill-rule="evenodd" clip-rule="evenodd" d="M344.238 33.6526C343.372 34.7256 342.096 36.5681 341.401 37.7473C339.805 40.4597 339.347 40.7399 336.115 40.9839C332.097 41.2863 328.963 43.4662 325.94 48.0584C320.513 56.3028 320.448 56.3822 316.86 59.1692C313.604 61.6982 313.311 62.4186 312.94 68.7738L312.651 73.7466L310.785 78.1461C309.018 82.3121 307.993 85.9807 307.983 88.1652C307.971 90.7678 302.292 86.9066 294.994 79.3347C290.47 74.641 289.069 72.5744 286.822 67.284C285.155 63.3585 284.21 61.7858 283.084 61.0595C282.732 60.8319 282.314 59.7553 281.968 58.1826C281.464 55.8906 280.106 52.7544 279.62 52.7544C279.511 52.7544 278.988 53.1339 278.46 53.5986C276.604 55.2321 272.458 57.3583 268.394 58.7617C262.681 60.7349 262.209 61.3024 258.802 70.3209C256.076 77.5343 253.395 77.797 250.541 71.1289C248.773 66.9991 247.043 59.2439 247.037 55.4224C247.034 53.3312 240.885 42.4341 239.336 41.7756C238.535 41.4358 232.7 51.6009 230.314 57.4937C229.413 59.7168 229.326 60.2527 229.249 64.0941C229.181 67.535 229.001 68.8953 228.238 71.7862C226.788 77.2751 225.966 77.588 224.785 73.1009C224.221 70.9596 223.945 70.4727 222.59 69.2292C221.738 68.4457 220.399 66.9839 219.617 65.9798C216.502 61.9831 213.817 61.0444 204.188 60.5843C195.649 60.1768 193.936 59.8289 190.547 57.8148C188.318 56.4907 187.473 55.1585 185.027 49.1139C182.882 43.8118 177.116 42.9677 174.638 47.5925C173.369 49.9627 171.562 50.8606 169.998 49.8962C169.485 49.5786 169.392 49.6977 169.225 50.8769C168.809 53.8134 168.668 54.4136 168.075 55.7867C166.426 59.6059 164.304 60.7945 163.298 58.4628C163.086 57.9724 162.209 55.8848 161.35 53.824C160.49 51.7643 159.449 49.5459 159.036 48.8967C158.245 47.6521 157.886 46.0606 157.21 40.8018C156.939 38.6838 156.672 37.6224 156.427 37.6855C155.458 37.9318 154.5 37.787 152.216 37.0515C150.085 36.3638 148.99 36.254 144.328 36.254C138.947 36.2552 136.77 36.5109 128.396 38.1233C126.184 38.5495 122.339 39.2804 119.851 39.7474L115.326 40.5963L114.074 39.2711C111.566 36.6195 103.184 34.5692 103.184 36.6066C103.184 43.0319 101.897 47.4629 99.9352 47.798C97.9479 48.1378 97.4407 47.4501 96.9932 43.8107C96.6945 41.3856 95.9029 38.198 95.4635 37.6598C95.3349 37.501 93.9915 37.6189 92.478 37.9213C89.9441 38.4269 83.0498 39.5618 75.0318 40.7936C73.245 41.0692 69.1388 41.5514 65.9063 41.8678C62.6728 42.1842 58.5879 42.5835 56.8284 42.7552C55.0678 42.928 53.5635 43.1428 53.4845 43.235C53.4045 43.3261 53.202 47.6334 53.033 52.8046C52.6321 65.0924 49.6061 84.5083 48.0916 84.5083C47.6897 84.5083 43.0004 63.6551 40.8309 52.2185C39.0845 43.0132 38.0661 41.7697 35.8621 46.1529C34.5147 48.8348 28.7856 62.2552 28.4759 63.4578C22.3216 61.6819 -0.939239 56.2841 11.6816 60.5843C9.85836 63.0444 1.18546 78.2446 0.0283232 86.886C-0.83219 93.3054 18.1952 120.489 18.9849 115.779C19.0426 115.436 19.9254 114.735 21.0309 114.157C22.1009 113.598 23.0728 112.959 23.1903 112.738C24.4142 110.455 30.0521 116.136 31.6932 121.309C33.3555 126.545 33.9062 131.391 34.1624 143.022L34.378 152.834L35.3904 154.696C35.9472 155.72 36.9373 157.045 37.5903 157.641C38.8385 158.781 40.7246 163.914 42.0983 169.907C42.7432 172.72 43.1664 173.349 44.4207 173.349C46.5224 173.349 47.3627 169.501 47.0316 161.397C46.7289 153.969 46.7947 149.92 47.3698 140.702C47.6137 136.778 48.0167 129.955 48.2637 125.539C49.0432 111.612 48.9541 112.113 51.0943 109.474C52.706 107.487 53.7265 107.203 54.8654 108.427C55.2379 108.827 55.5426 109.213 55.5426 109.285C55.5426 109.796 59.2783 133.586 60.3038 139.605C60.971 143.522 63.5778 144.491 64.4627 141.152C65.1501 138.557 65.2513 136.646 65.2958 125.36C65.3495 111.967 65.4285 111.263 67.6 105.024C68.419 102.669 69.5326 99.0963 70.0742 97.0857C71.3407 92.3779 71.4055 92.4561 71.1453 98.3723C70.6827 108.891 71.8722 110.978 76.764 108.229C77.6316 107.741 78.481 107.343 78.6521 107.343C78.8383 107.343 79.0368 109.648 79.1491 113.14C79.4913 123.71 81.0544 127.24 83.7078 123.431C84.8599 121.779 85.6405 121.466 86.8351 122.177C87.893 122.809 87.7857 121.732 87.8474 132.318C87.893 140.198 87.9669 141.341 88.5956 143.913C89.4935 147.59 90.4786 153.762 90.5312 156.045C90.596 158.811 90.8936 159.908 91.7066 160.375C94.0654 161.732 95.419 157.922 95.7784 148.909C96.486 131.21 98.9187 118.258 104.559 102.169C105.798 98.6374 106.98 95.1451 107.187 94.4095C107.393 93.6728 107.707 93.0715 107.883 93.0715C108.25 93.0715 108.793 92.4141 115.626 83.6992C120.697 77.2319 121.398 76.6119 122.941 77.2377C124.361 77.8134 124.596 78.8689 124.319 83.4377C123.844 91.2722 124.004 93.8689 125.234 98.2778C127.447 106.207 128.414 112.62 128.742 121.53L123.722 180.227L131.769 187.703C133.281 189.065 135.715 191.681 135.715 191.681L139.795 145.69L140.198 143.639C140.945 139.845 142.795 137.107 146.437 134.403C149.094 132.431 148.958 132.756 148.963 128.354C148.985 111.385 152.338 104.633 156.465 113.249C156.93 114.219 157.87 116.047 158.555 117.312C160.183 120.32 160.367 121.13 160.899 127.68C161.46 134.575 162.002 137.984 163.225 142.308C164.643 147.321 165.983 149.424 165.983 146.636C165.983 146.097 166.341 144.621 166.777 143.357C169.332 135.967 169.835 132.695 169.205 127.573C168.089 118.517 169.901 100.167 172.17 97.5515C173.744 95.7348 178.123 98.0956 179.931 101.736C180.642 103.17 180.679 103.546 180.706 109.84C180.735 116.395 181.029 119.196 182.207 124.112C185.194 136.585 185.625 140.581 186.234 161.397C186.95 185.878 187.964 193.857 190.563 195.461C193.452 197.244 196.026 188.672 197.845 171.208C198.182 167.97 198.531 164.919 198.621 164.429C198.775 163.582 200.284 143.857 200.953 133.923C201.371 127.723 202.044 120.534 202.861 113.535L203.533 107.775L208.446 113.179C211.148 116.15 214.15 119.702 215.116 121.073C221.095 129.551 227.559 140.51 232.165 149.979C238.612 163.231 245.809 166.937 255.755 162.124C256.375 161.825 257.048 163.224 259.181 169.245C263.458 181.312 265.289 192.992 265.281 208.136C265.275 217.994 263.843 221.519 258.636 224.494C255.441 226.318 254.036 228.477 252.913 233.287C252.499 235.063 251.475 237.025 250.32 238.257C249.769 238.846 249.509 239.49 249.509 240.27C249.509 244.189 247.844 250.48 246.1 253.142C244.63 255.388 244.352 256.161 243.786 259.575C242.567 266.92 241.287 269.806 235.941 277.252C232.24 282.409 232.753 282.017 228.782 282.705C224.555 283.437 214.687 286.304 209.029 288.443C206.307 289.473 206.203 289.421 206.186 287.054C206.179 286.036 205.972 284.56 205.726 283.776C204.621 280.235 205.309 274.244 206.845 274.036C208.432 273.821 209.299 270.752 208.465 268.301C208.24 267.638 208.056 266.363 208.056 265.466C208.056 263.463 206.915 261.833 205.513 261.833C204.393 261.833 204.095 260.986 204.761 259.686C206.046 257.178 204.197 255.179 202.148 256.862C201.153 257.679 201.145 257.745 201.733 260.509C201.914 261.357 201.766 261.699 200.726 262.828C199.746 263.892 199.427 264.572 199.103 266.292C198.881 267.47 198.591 268.946 198.457 269.574C198.252 270.541 198.324 270.797 198.929 271.255C199.803 271.914 199.585 273.563 198.171 276.997C196.448 281.181 196.423 281.381 197.175 285.27C198.047 289.792 198.065 292 197.232 292.514C196.525 292.951 193.531 294.183 188.875 295.955C187.089 296.635 185.209 297.409 184.699 297.675C184.189 297.941 182.24 298.575 180.368 299.085C178.496 299.596 176.478 300.165 175.882 300.352C172.465 301.425 166.541 301.605 163.478 300.728C159.938 299.715 157.507 298.713 155.465 297.429C152.23 295.393 151.678 294.906 150.647 293.191L149.742 291.685L149.723 284.341C149.701 275.921 149.246 272.587 147.112 265.25C146.431 262.911 145.874 260.823 145.873 260.612C145.872 260.401 145.658 259.757 145.399 259.182C145.139 258.607 144.456 256.521 143.882 254.544C141.068 244.853 140.65 242.318 139.849 230.078C139.03 217.557 138.259 209.77 136.579 197.075C136.216 194.328 135.827 191.9 135.715 191.681C135.419 191.1 123.863 180.064 123.722 180.227C122.641 182.934 120.992 197.112 121.772 203.677C122.501 209.813 122.04 220.186 120.623 229.543C120.356 231.309 120.042 236.046 119.927 240.068C119.722 247.248 119.702 247.419 118.816 249.345C115.075 257.483 115.017 257.978 115.545 277.808L115.954 293.19L114.68 294.944C112.901 297.397 110.826 299.259 105.523 303.171C103.41 304.731 97.4528 308.216 96.9021 308.216C96.1722 308.216 98.3812 312.721 99.2407 312.986C99.6223 313.105 101.119 313.205 102.564 313.209C105.902 313.22 107.652 314.094 110.005 316.923C114.114 321.865 119.539 325.404 125.341 326.931C126.511 327.24 128.303 327.712 129.324 327.983C130.345 328.254 132.294 328.873 133.655 329.359C135.016 329.844 137.174 330.33 138.45 330.44C140.925 330.65 143.972 331.317 144.483 331.758C145.2 332.38 149.623 332.991 159.254 333.796C160.573 333.905 161.652 334.135 161.652 334.307C161.652 334.477 162.202 334.618 162.874 334.618C163.59 334.618 164.199 334.823 164.343 335.111C164.533 335.491 165.756 335.639 169.583 335.749C173.047 335.848 174.723 336.033 175.057 336.351C175.401 336.681 176.268 336.761 178.108 336.634C184.048 336.221 188.234 335.275 195.836 332.629C201.956 330.499 203.131 330.247 208.21 329.972C213.054 329.71 213.243 329.669 217.027 328.078C219.154 327.184 221.798 326.184 222.905 325.857C224.01 325.53 225.194 325.136 225.534 324.981C226.253 324.656 234.09 322.982 236.361 322.668C238.354 322.394 244.487 319.839 246.88 318.288C249.659 316.485 250.315 315.588 252.451 310.669C254.655 305.594 257.707 299.826 262.609 291.477C264.949 287.495 265.593 286.808 266.988 286.808C269.722 286.808 270.101 288.37 270.005 299.232C269.927 308.103 270.299 312.39 271.239 313.43C272.269 314.571 276.511 315.607 278.125 315.111C278.976 314.849 281.482 314.478 283.694 314.285C291.577 313.596 292.272 313.36 297.505 309.578C302.671 305.847 302.956 305.771 308.757 306.633L310.31 306.863L312.006 304.825C314.118 302.287 313.955 302.504 316.157 299.295C319.081 295.034 325.442 287.162 327.941 284.712C328.616 284.049 329.019 283.6 328.836 283.713C328.653 283.826 327.01 283.361 325.186 282.678C318.351 280.122 310.534 279.138 299.239 279.413L291.273 279.605L291.264 274.911C291.256 270.123 291.245 270.043 289.266 260.405C288.127 254.859 288.114 251.096 289.216 246.363C290.24 241.968 290.25 239.459 289.266 234.895C287.797 228.089 288.286 222.927 290.978 216.832C293.767 210.517 294.566 205.657 294.841 193.329C295.252 174.93 297.335 166.689 303.262 160.004C305.842 157.095 305.758 157.122 307.817 158.552C308.798 159.233 309.654 159.791 309.72 159.791C309.787 159.791 311.101 160.689 312.64 161.788C317.577 165.311 319.983 162.052 322.811 148.017C323.985 142.193 325.25 138.433 326.755 136.289L327.347 135.443L328.685 136.289C335.558 140.633 335.172 140.67 339.803 135.227C343.886 130.43 349.784 124.815 347.846 127.57C347.553 127.986 347.542 128.09 347.809 127.904C349.721 126.579 353.143 118.262 354.512 111.609C356.116 103.822 356.7 77.2155 355.344 73.7583C353.849 69.9531 353.821 65.8046 355.209 54.3599C356.608 42.8194 355.714 39.1601 350.493 35.0584C345.35 31.0162 346.21 31.2088 344.238 33.6526ZM202.527 280.654C202.712 281.193 202.988 281.914 203.139 282.254C203.291 282.595 203.415 283.162 203.415 283.513C203.415 283.865 203.609 284.471 203.846 284.861C204.083 285.251 204.327 286.523 204.388 287.688L204.498 289.808L202.487 290.619L200.476 291.429L199.935 290.684C199.591 290.212 199.393 289.336 199.391 288.285C199.39 287.374 199.304 285.819 199.2 284.829C198.895 281.896 201.733 278.335 202.527 280.654Z" fill="#243C4B"/>
<path d="M123.995 179L136.428 184.933L135.394 187.859L136.428 195.255L123 184.588V183.572L123.995 179Z" fill="#243C4B"/>
<path d="M0 0H400V112L193.664 82.8678L123.107 66.2253L55.4053 94.9562H0V0Z" fill="#243C4B"/>
<path d="M1.76123 350L99.5 307L175.066 311.901L254.413 285.089L328.249 283.694L374.502 291.582L400 282.438V350H1.76123Z" fill="#243C4B"/>
<path d="M18.5 54L79 37.5L197.882 269.922L18.5 54Z" fill="#D7DA4D" fill-opacity="0.15"/>
</svg>
