<svg width="400" height="350" viewBox="0 0 400 350" fill="none" xmlns="http://www.w3.org/2000/svg">
<rect y="340" width="400" height="10" fill=""/>
<path fill-rule="evenodd" clip-rule="evenodd" d="M116.644 62.2235C116.315 62.4423 115.27 63.7925 114.323 65.2234C113.376 66.6555 111.915 68.794 111.076 69.9766C110.237 71.1591 108.794 73.2708 107.869 74.6696C105.963 77.5518 104.257 79.7531 103.931 79.7531C103.811 79.7531 103.145 81.6459 102.453 83.9572C101.762 86.2699 100.746 89.5692 100.197 91.2906C98.0011 98.1708 94.5577 113.472 93.9408 119.085C93.0215 127.452 91.9802 135.027 92.4105 135.589C92.5104 135.72 92.7006 135.676 92.9 135.589C94.3687 134.949 92.389 135.45 96.881 134.508C101.352 133.57 101.615 133.416 104.872 129.787C108.348 125.917 109.986 124.736 111.881 124.732C113.872 124.727 119.3 126.017 121.725 127.073L123.643 127.907L136.945 130.054C137.02 131.063 137.564 124.486 137.504 118.356C137.348 102.738 122.476 93.927 119.928 84.4461C118.944 80.7833 118.715 76.7366 119.142 70.5627C119.452 66.0834 119.292 63.2742 118.686 62.5422C118.219 61.9778 117.241 61.8242 116.644 62.2235ZM67.0512 85.9166C66.7624 87.2617 65.9311 90.0952 65.2037 92.2107C63.0115 98.5855 65.6939 82.9297 62.4554 89.9297C60.3405 87.4297 61.1963 89.9477 58.6957 89.9297C56.6602 89.9144 53.6975 89.9297 53.6975 92.2107C48.1737 93.9297 52.0438 93.5379 49.0517 97.6205C47.0172 100.396 46.8742 101.636 45.7355 126.488C45.4888 131.864 45.1354 139.043 44.9493 142.438C44.9249 143.908 44.9249 142.318 44.9249 144.548L45.014 144.869L46.0753 146.432C47.68 148.798 49.506 153.038 50.0846 155.746C51.2282 161.094 51.941 163.835 52.1877 163.835C52.8525 163.835 53.7004 159.406 53.6975 155.943C53.6935 150.314 55.6713 146.628 58.6957 146.628C60.1996 146.628 60.7077 146.413 62.4554 145.035C67.5231 141.039 72.0984 145.322 74.8956 156.677C77.0653 165.486 78.8982 165.863 78.3371 157.383C77.6939 147.67 77.9093 146.819 81.8834 143.39C83.4705 142.021 84.6434 140.71 84.8598 140.065C85.0556 139.481 85.3454 138.884 85.5031 138.738C85.6832 138.573 85.6773 138.284 85.4864 137.956C84.3644 136.031 90.7404 136.683 91.0009 127.907C91.1869 121.608 89.9824 116.007 89.5409 115.43C88.6891 114.316 92.9 107.43 93.9408 103.7C92.9 97.6205 91.4876 95.9297 89.5409 93.9297L81.8834 89.9297L80.7808 82.9297C76.6187 85.5035 68.0225 97.6308 67.7493 88.9434L67.577 83.4683L67.0512 85.9166ZM166.362 84.5306C163.781 87.5919 162.223 105.797 163.43 118.783C163.765 122.39 163.319 125.787 161.671 132.159C160.864 135.278 160.164 138.267 160.115 138.802C159.957 140.53 159.079 140.215 158.286 138.147C156.473 133.414 155.047 125.193 154.528 116.489C154.178 110.617 153.648 108.475 151.463 104.1C150.578 102.328 149.582 100.304 149.251 99.6029C148.073 97.1111 145.602 98.2732 144.929 101.635C144.478 103.883 144.021 111.633 144.02 117.034C144.019 122.689 143.945 122.892 141.061 125.112C137.885 127.558 135.999 130.91 135.191 135.545C134.666 138.55 134.385 140.525 134.628 139.491C134.823 138.661 135.079 138.651 136.945 139.391C140.356 140.744 141.434 142.69 141.948 148.429C142.648 156.232 145.771 160.431 145.586 153.32C145.498 149.946 146.028 148.639 147.274 149.155C148.654 149.728 149.19 151.831 149.427 157.61C149.548 160.579 149.734 163.192 149.84 163.417C149.945 163.641 150.159 164.839 150.313 166.079C150.876 170.617 151.656 171.599 152.65 169.017C153.692 166.307 154.03 163.702 153.719 160.761C153.24 156.231 154.028 153.901 157.111 150.738C159.97 147.804 161.163 148.497 163.382 154.379C165.083 158.89 165.824 158.559 169.977 151.429C171.663 148.534 171.443 148.59 173.408 150.537C174.728 151.844 184.504 158.144 184.618 157.877C184.736 157.599 190.812 136.245 184.618 132.159C182.395 125.328 177.437 125.046 175.885 117.102C173.912 106.991 173.535 103.546 173.784 97.8893C174.109 90.5329 173.075 87.2259 169.776 85.0592C167.542 83.5912 167.198 83.5375 166.362 84.5306ZM196.279 97.4503C195.74 100.354 185.911 117.347 185.062 132.503C180.173 155.539 184.917 156.519 184.618 157.877C184.438 158.69 191.597 158.666 192.482 157.585C193.635 156.177 194.053 156.383 196.947 159.795C200.23 163.668 201.227 167.6 201.751 178.746C202.107 186.34 202.644 189.874 203.596 190.919C205.009 192.465 205.657 191.123 205.844 186.26C205.978 182.808 206.836 178.017 208.531 171.276C208.636 170.861 208.828 171.027 209.212 171.862C214.317 182.953 215.696 185.346 220.039 190.66C222.598 193.789 224.481 199.456 224.797 204.972C224.958 207.806 225.128 208.63 225.822 209.937C226.523 211.26 226.622 211.746 226.451 213.061C226.182 215.142 226.651 216.241 227.809 216.241C228.873 216.241 229.287 215.186 229.287 212.48C229.287 210.185 230.116 205.461 230.613 204.921C231.833 203.598 239.388 218.812 242.642 229.147C243.353 231.404 243.938 232.853 243.942 232.364C243.962 229.171 246.327 225.063 249.253 223.137C254.759 219.512 256.922 211.62 255.625 199.89C255.465 198.45 255.186 194.809 255.003 191.798C254.277 179.807 249.727 158.746 247.13 155.35C247.097 155.308 245.864 155.807 244.387 156.46C235.79 160.261 229.417 155.584 222.993 140.762C220.316 134.587 219.715 133.281 217.832 129.549C212.425 118.835 205.262 106.843 202.517 103.913C201.857 103.208 200.248 101.268 198.942 99.6004C196.201 96.1039 196.485 96.333 196.279 97.4503ZM21.652 101.654C21.2408 102.074 20.2509 102.706 19.452 103.06L18 103.7L18.2046 106.294C18.3172 107.721 18.6736 111.089 18.9957 113.778C20.2891 124.584 20.4546 126.27 20.6435 130.594C20.8844 136.098 23.01 143.274 24.6862 144.244C26.3379 145.199 27.5755 148.315 28.4204 153.648C28.674 155.25 29.1224 157.187 29.4171 157.949C29.7118 158.714 30.1759 160.35 30.4481 161.587C31.3978 165.901 31.7483 164.409 31.95 155.195C32.0342 151.334 32.233 148.62 32.4905 147.793L32.8987 146.487V146.434C32.8987 146.191 32.8987 146.363 32.8987 146.434V146.085L45.1046 139.491C44.8922 137.452 54.7599 110.835 43.7207 113.778C43.61 99.1588 30.6801 111.129 27.7537 106.109C25.116 101.587 23.1333 100.139 21.652 101.654ZM331.002 122.284C329.763 123.735 328.014 126.04 327.113 127.404C324.346 131.596 323.147 131.739 318.725 128.405C317.469 127.458 316.299 126.684 316.125 126.684C314.972 126.684 309.901 110.476 308.057 120.5C306.882 126.884 296.697 127.985 294.818 129.787C293.436 131.112 291.023 131 290.05 143.891C289.609 142.959 295.388 150.495 294.818 150.731C293.666 151.209 290.054 156.892 288.648 160.439C286.369 166.186 284.957 175.427 284.933 184.759C284.891 201.119 284.102 207.117 280.893 215.467C278.411 221.927 277.981 227.586 279.401 235.089C280.307 239.875 280.339 242.345 279.543 246.066C278.067 252.97 278.166 256.965 280.045 266.298C280.967 270.876 281.129 272.368 281.266 277.522L281.425 283.466L282.208 283.309C286.723 282.405 300.025 282.947 305.971 284.278C309.435 285.054 310.194 285.306 314.975 287.256C317.296 288.203 317.353 288.207 317.967 287.487C318.312 287.082 318.825 286.646 319.107 286.515C319.775 286.208 319.691 283.969 318.976 283.03C315.838 278.912 312.987 264.413 312.954 252.415C312.93 243.033 313.443 240.012 316.315 232.666C319.431 224.69 319.428 224.707 319.492 213.503C319.567 200.152 319.839 199.171 325.635 191.353C327.092 189.387 328.354 187.87 328.442 187.984C328.528 188.097 342.053 169 342.053 167.422C341.555 161.886 364.2 104.426 364.997 99.5C365.333 97.428 331.708 121.612 332.145 121.586C332.343 121.575 333.535 119.643 333.343 119.643C333.294 119.643 332.24 120.831 331.002 122.284Z" fill="#345C64"/>
<path d="M0 0H400V123L306 196L315.5 281.5L319 283.5L353 345H306L281.5 283.5L243.5 231.5L248.5 185L203.5 160L184.5 158L160 140.5L138 130.5L121.5 119.5L110 123L93 136L85.5 138.5H45L21 134L0 0Z" fill="#345C64"/>
</svg>
