<svg width="400" height="350" viewBox="0 0 400 350" fill="none" xmlns="http://www.w3.org/2000/svg">
<path fill-rule="evenodd" clip-rule="evenodd" d="M99.9444 131.82C99.1497 132.342 97.4167 133.813 96.091 135.089C92.9444 138.12 92.6949 138.247 88.3473 139.035C83.8023 139.86 84.2114 139.283 83.9279 145.269C83.5462 153.34 82.1741 156.372 79.5879 154.86C78.6014 154.283 78.5296 154 78.2952 149.8C77.9711 143.997 77.4202 141.705 76.7975 143.569C76.5783 144.225 75.6872 145.113 73.9278 146.426C70.0659 149.308 69.8599 150.007 70.4817 158.124C71.0231 165.203 69.2542 164.889 67.1603 157.535C64.4606 148.056 60.045 144.482 55.1541 147.817C53.4674 148.968 52.977 149.147 51.5256 149.147C48.6068 149.147 46.698 152.224 46.7018 156.922C46.7046 159.813 45.8863 163.511 45.2447 163.511C45.0066 163.511 44.3187 161.222 43.215 156.758C42.6566 154.497 40.8943 150.958 39.3455 148.984L38.3213 147.678L38.3071 148.82C38.3005 149.449 38.4488 151.846 38.6387 154.148C39.6489 166.384 35.4638 172.074 32.8322 162.042C31.1805 155.744 30.2922 153.544 28.8683 152.225C28.1728 151.581 27.3894 150.588 27.1277 150.019L26.6505 148.984L26.2461 150.096C25.9834 150.819 25.7973 152.993 25.7132 156.298C25.5185 163.989 25.1802 165.235 24.2636 161.634C24.001 160.602 23.5531 159.235 23.2686 158.597C22.9842 157.961 22.5514 156.344 22.3067 155.007C21.5139 150.678 20.3866 148.145 18.8379 147.207C17.7021 146.52 17.7125 146.833 18.9211 149.656C22.4872 157.987 23.5644 163.752 23.5682 174.535L23.571 180.499L24.2202 180.344C25.6782 179.997 33.4908 178.724 36.3209 178.373C38.4828 178.105 40.3963 178.687 42.375 180.214C44.9792 182.223 46.3172 182.272 50.9813 180.521C55.8628 178.688 57.0572 178.705 61.709 180.673C66.2645 182.599 67.7339 182.739 73.5234 181.791C78.8518 180.919 81.6545 181.033 85.5069 182.278C89.0739 183.431 92.2754 183.637 96.0333 182.957C99.3377 182.359 100.415 182.454 103.108 183.583C104.068 183.986 105.381 184.391 106.027 184.484L107.201 184.653L107.548 181.942C107.739 180.452 108.199 177.789 108.572 176.024C108.946 174.259 109.538 171.419 109.89 169.713C110.241 168.008 110.713 165.985 110.939 165.217C112.03 161.496 112.989 154.577 113.371 147.678C113.54 144.626 113.804 140.953 113.958 139.516C114.112 138.08 114.237 136.145 114.237 135.217V133.53L112.371 132.828C107.075 130.836 102.062 130.429 99.9444 131.82ZM125.054 143.516C124.705 145.403 124.326 146.819 123.198 150.452C121.142 157.077 120.245 167.47 121.01 175.835C121.231 178.252 121.438 178.604 122.094 177.676C122.895 176.543 124.543 174.732 125.536 173.892C126.109 173.407 127.071 172.422 127.673 171.704C128.275 170.985 129.134 170.196 129.581 169.952C130.027 169.707 130.691 169.006 131.056 168.395C131.421 167.783 132.084 167.057 132.53 166.784C132.976 166.51 134.046 165.514 134.906 164.57L136.473 162.856L137.298 163.754C137.752 164.249 138.354 165.168 138.637 165.796C139.29 167.248 140.104 168.436 140.296 168.218C140.44 168.055 140.254 166.867 139.61 163.838C139.438 163.03 139.204 160.443 139.089 158.091C138.866 153.511 138.323 151.727 137.013 151.256C135.811 150.825 135.3 151.916 135.384 154.733C135.469 157.564 135.139 158.409 134.262 157.605C133.945 157.314 133.841 157.294 133.976 157.549C134.121 157.824 134.047 157.891 133.742 157.76C133.496 157.652 133.294 157.287 133.294 156.947C133.294 156.607 133.194 156.329 133.071 156.329C132.779 156.329 132.216 153.552 131.853 150.313C131.352 145.841 130.264 144.21 127.045 143.106C125.216 142.479 125.247 142.472 125.054 143.516ZM146.507 152.577C143.532 155.218 142.771 157.163 143.233 160.945C143.695 164.725 142.388 168.961 140.499 169.802C140.217 169.928 140.278 169.996 140.689 170.015C141.36 170.042 141.454 170.186 147.881 180.977C155.745 194.18 155.622 193.989 156.461 194.235C156.896 194.361 159.884 194.636 163.103 194.846C172.729 195.471 173.994 195.92 179.638 200.716C183.537 204.029 185.467 205.168 189.995 206.829C197.918 209.734 199.78 211.505 204.835 220.944C207.772 226.429 210.731 230.091 215.471 234.113C217.076 235.474 218.985 237.171 219.714 237.884C220.444 238.598 221.148 239.234 221.278 239.297C221.409 239.36 221.807 239.836 222.162 240.353C222.516 240.871 222.806 241.129 222.806 240.926C222.806 240.723 223.275 239.819 223.847 238.917C225.231 236.74 226.15 233.599 226.568 229.619C226.888 226.572 226.975 226.285 227.865 225.336C230.162 222.884 230.358 221.559 228.978 217.788C225.923 209.429 218.592 196.73 217.444 197.807C216.964 198.258 216.164 202.201 216.164 204.117C216.164 206.376 215.764 207.256 214.738 207.256C213.62 207.256 213.168 206.339 213.428 204.602C213.592 203.504 213.497 203.099 212.82 201.994C212.151 200.903 211.987 200.215 211.831 197.85C211.526 193.245 209.708 188.515 207.239 185.903C203.048 181.467 201.717 179.469 196.79 170.211C196.419 169.514 196.234 169.376 196.133 169.722C194.497 175.349 193.668 179.349 193.54 182.23C193.359 186.289 192.734 187.409 191.37 186.119C190.451 185.247 189.933 182.296 189.589 175.958C189.084 166.654 188.122 163.371 184.952 160.138C181.352 156.466 180.061 156.812 179.667 161.555C178.397 176.851 175.592 187.342 172.773 187.342C169.891 187.342 168.821 182.154 168.178 165.06L167.837 155.999L165.797 154.857C164.675 154.229 163.073 153.129 162.236 152.411C160.339 150.785 160.551 150.738 158.924 153.154C154.916 159.106 154.201 159.383 152.559 155.617C150.417 150.707 149.266 150.129 146.507 152.577ZM121.57 183.721C121.666 184.456 121.82 185.642 121.914 186.358C122.097 187.768 121.906 187.647 125.553 188.664C127.688 189.26 127.731 188.912 125.753 187.001C124.74 186.021 123.344 184.582 122.654 183.803L121.396 182.386L121.57 183.721ZM311.181 184.024C310.953 184.323 309.649 185.89 308.283 187.505C303.681 192.95 303.292 194.296 303.222 204.971C303.16 214.323 303.163 214.31 300.155 220.967C295.327 231.653 295.747 247.99 301.16 260.031C302.916 263.939 302.958 263.947 303.179 260.433C303.379 257.267 304.252 252.569 305.54 247.736C307.934 238.749 308.333 235.509 308.089 227.042C307.884 219.948 308.15 217.758 309.922 212.006C311.632 206.449 311.783 205.121 311.943 194.086C312.088 184.154 311.997 182.952 311.181 184.024ZM27.6625 213.785C27.6767 214.633 28.1312 216.026 28.1416 215.254C28.1463 214.895 28.0386 214.307 27.9016 213.948C27.7495 213.549 27.6569 213.485 27.6625 213.785Z" fill="#457C7C"/>
<path d="M18 131H311.871V266.143L302.894 263.472L255.944 279.47L222.576 241.572L200.37 210.59L172.022 190.292L155.959 194.031L134.424 190.292L107.295 184.416L103.515 179.609L30.284 176.404L18 183.348V131Z" fill="#457C7C"/>
<path d="M0 0H400V345.5H303L256 279.5L225 224.5L176.5 193L68.5 172.5L26 179.5L11.5 187.5L1 194L0 147V0Z" fill="#457C7C"/>
<rect y="340" width="400" height="10" fill="#457C7C"/>
</svg>
