<svg width="400" height="350" viewBox="0 0 400 350" fill="none" xmlns="http://www.w3.org/2000/svg">
<path fill-rule="evenodd" clip-rule="evenodd" d="M0 168.269V350H200H400V168.269V0H200H0V168.269ZM344.426 44.6773C353.39 51.2158 354.11 53.0584 352.536 65.457C351.165 76.2522 351.193 80.1652 352.669 83.7544C353.392 85.5143 353.564 105.96 352.913 112.74C351.909 123.2 348.908 130.786 343.226 137.222C341.465 139.217 340.635 140.447 340.275 141.597C339.081 145.404 338.202 169.67 338.303 196.033C338.382 216.956 338.403 216.697 336.01 224.976C334.204 231.224 333.93 233.673 334.181 241.298C334.427 248.746 334.122 251.623 332.399 258.117C329.483 269.107 329.072 271.184 328.893 275.859L328.722 280.299L327.004 281.63C324.278 283.74 317.91 290.996 313.961 296.49C311.786 299.516 311.947 299.312 309.861 301.706L308.186 303.628L306.652 303.411C300.922 302.598 300.64 302.67 295.537 306.189C290.368 309.757 289.682 309.979 281.895 310.629C279.71 310.81 277.235 311.161 276.394 311.407C274.8 311.875 270.61 310.899 269.592 309.823C268.664 308.841 268.296 304.797 268.373 296.431C268.468 286.185 268.094 284.711 265.393 284.711C264.015 284.711 263.379 285.359 261.068 289.116C256.226 296.99 253.211 302.431 251.034 307.218C248.924 311.858 248.276 312.704 245.531 314.404C243.167 315.868 237.109 318.277 235.141 318.536C232.897 318.832 225.156 320.411 224.446 320.718C224.11 320.863 222.941 321.236 221.849 321.544C220.756 321.852 218.144 322.795 216.043 323.639C212.305 325.14 212.118 325.178 207.334 325.425C202.317 325.685 201.156 325.923 195.111 327.932C187.602 330.427 183.467 331.319 177.599 331.709C175.782 331.829 174.926 331.753 174.586 331.443C174.256 331.142 172.6 330.968 169.179 330.874C165.398 330.771 164.19 330.631 164.003 330.273C163.86 330.001 163.259 329.807 162.552 329.807C161.888 329.807 161.345 329.675 161.345 329.514C161.345 329.352 160.279 329.135 158.976 329.032C149.463 328.273 145.094 327.697 144.385 327.11C143.881 326.694 140.871 326.065 138.426 325.867C137.166 325.763 135.034 325.305 133.69 324.847C132.345 324.389 130.42 323.805 129.412 323.549C128.403 323.294 126.633 322.848 125.477 322.557C119.746 321.117 114.388 317.779 110.329 313.117C108.005 310.448 106.276 309.624 102.979 309.613C99.382 309.603 99.108 309.48 98.194 307.468C97.764 306.521 97.17 305.442 96.875 305.072C94.566 302.177 92.188 295.002 91.515 288.895C90.537 280.032 90.155 277.656 89.32 275.265C88.849 273.92 88.296 272.758 88.091 272.683C87.546 272.483 84.825 277.257 83.769 280.266C81.087 287.91 80.373 289.125 76.252 293.083C74.536 294.731 72.731 296.777 72.242 297.63C71.138 299.554 71.326 299.576 68.508 297.207C64.422 293.774 61.408 290.214 56.505 283.029C51.112 275.127 47.817 272.007 41.756 269.062C38.091 267.281 38.361 268.75 38.331 250.384C38.304 233.244 38.428 234.764 36.182 223.966C35.605 221.189 34.996 218.54 34.83 218.077C34.664 217.614 34.094 214.964 33.563 212.187L32.598 207.14L32.389 192.163C32.11 172.225 31.765 170.476 24.891 154.134C23.126 149.938 23.121 149.916 22.868 145.654C22.728 143.303 22.127 137.869 21.533 133.577C19.479 118.758 19.861 108.203 22.926 95.0716C24.814 86.9845 28.026 76.8678 29.177 75.3843C29.392 75.1068 29.671 74.5011 29.796 74.0385C29.921 73.576 31.374 70.1685 33.026 66.4658C39.313 52.3755 39.772 52.2203 42 63.4372C44.143 74.2247 48.775 93.8943 49.172 93.8943C50.668 93.8943 53.657 75.5804 54.053 63.9901C54.22 59.1123 54.42 55.0495 54.499 54.9636C54.577 54.8766 56.063 54.674 57.802 54.511C59.54 54.3491 63.575 53.9725 66.769 53.674C69.962 53.3755 74.018 52.9207 75.783 52.6608C83.703 51.4989 90.513 50.4284 93.016 49.9515C94.511 49.6663 95.838 49.5551 95.965 49.7048C96.399 50.2125 97.181 53.2192 97.476 55.5066C97.918 58.9394 98.419 59.5881 100.382 59.2676C102.32 58.9515 103.591 54.772 103.591 48.7114C103.591 46.7896 111.871 48.7236 114.348 51.2247L115.585 52.4747L120.054 51.674C122.512 51.2335 126.31 50.544 128.495 50.1421C136.767 48.6211 138.917 48.3799 144.232 48.3788C148.837 48.3788 149.919 48.4824 152.024 49.131C154.28 49.8249 155.226 49.9614 156.183 49.7291C156.425 49.6696 156.689 50.6707 156.957 52.6685C157.625 57.6288 157.979 59.1299 158.761 60.3039C159.169 60.9163 160.197 63.0088 161.046 64.9515C161.895 66.8954 162.761 68.8645 162.97 69.3271C163.964 71.5264 166.06 70.4053 167.689 66.8028C168.275 65.5077 168.414 64.9416 168.825 62.1718C168.99 61.0595 169.082 60.9471 169.589 61.2467C171.133 62.1564 172.918 61.3095 174.172 59.0738C176.62 54.7114 182.315 55.5077 184.434 60.5088C186.85 66.2103 187.685 67.4669 189.886 68.7158C193.234 70.6156 194.926 70.9438 203.361 71.3282C212.872 71.7621 215.524 72.6476 218.601 76.4174C219.374 77.3645 220.696 78.7434 221.538 79.4824C222.876 80.6553 223.149 81.1145 223.706 83.1343C224.873 87.3667 225.685 87.0716 227.117 81.8943C227.871 79.1674 228.048 77.8843 228.116 74.6388C228.192 71.0154 228.277 70.5099 229.167 68.413C231.524 62.8546 237.288 53.2665 238.079 53.587C239.609 54.2081 245.683 64.4868 245.686 66.4592C245.692 70.0639 247.401 77.3788 249.147 81.2742C251.966 87.5638 254.615 87.3161 257.307 80.5121C260.673 72.0055 261.139 71.4703 266.782 69.609C270.796 68.2852 274.892 66.2797 276.725 64.739C277.247 64.3006 277.763 63.9427 277.871 63.9427C278.351 63.9427 279.692 66.9009 280.19 69.0628C280.532 70.5462 280.945 71.5616 281.293 71.7764C282.405 72.4614 283.338 73.9449 284.985 77.6476C287.204 82.6376 288.588 84.587 293.057 89.0143C300.266 96.1564 305.875 99.7984 305.887 97.3436C305.897 95.283 306.91 91.8227 308.655 87.8931L310.498 83.7434L310.784 79.0528C311.15 73.0584 311.44 72.3788 314.656 69.9934C318.2 67.3645 318.264 67.2896 323.625 59.5132C326.611 55.1817 329.707 53.1255 333.675 52.8403C336.868 52.6101 337.32 52.3458 338.897 49.7874C340.13 47.7885 343.08 44.0848 343.437 44.0881C343.538 44.0892 343.983 44.3546 344.426 44.6773Z" fill="black"/>
</svg>
